<?xml version="1.0" encoding="utf-8"?>
<!-- Generator: Adobe Illustrator 27.5.0, SVG Export Plug-In . SVG Version: 6.00 Build 0)  -->
<svg version="1.1" xmlns="http://www.w3.org/2000/svg" xmlns:xlink="http://www.w3.org/1999/xlink" x="0px" y="0px"
	 viewBox="0 0 500 500" style="enable-background:new 0 0 500 500;" xml:space="preserve">
<g id="BACKGROUND">
	<rect style="fill:#4856D8;" width="500" height="500"/>
</g>
<g id="OBJECTS">
	<circle style="fill:#5A6BFE;" cx="244.724" cy="288.633" r="201.466"/>
	<g>
		<g>
			<path style="fill:#D6E7FF;" d="M301.472,229.064l-26.198,4.131l-16.676-20.623l9.522-24.754l26.198-4.131l16.677,20.622
				L301.472,229.064z M275.881,231.615l24.526-3.867l8.914-23.174l-15.612-19.306l-24.526,3.867l-8.914,23.174L275.881,231.615z"/>
		</g>
		<g>
			<path style="fill:#D6E7FF;" d="M336.182,201.328l-26.198,4.131l-16.677-20.623l9.521-24.754l26.198-4.131l16.677,20.623
				L336.182,201.328z M310.592,203.879l24.526-3.867l8.914-23.174l-15.612-19.306l-24.525,3.867l-8.914,23.174L310.592,203.879z"/>
		</g>
		<g>
			<path style="fill:#D6E7FF;" d="M343.109,245.256l-26.198,4.131l-16.676-20.623l9.522-24.754l26.198-4.131l16.677,20.622
				L343.109,245.256z M317.518,247.807l24.526-3.867l8.913-23.174l-15.612-19.306l-24.526,3.867l-8.914,23.174L317.518,247.807z"/>
		</g>
		<path style="fill:#CD73B9;" d="M298.392,183.292c0.336,2.133-1.12,4.134-3.253,4.471c-2.133,0.336-4.134-1.12-4.471-3.253
			c-0.336-2.133,1.12-4.135,3.253-4.471S298.056,181.16,298.392,183.292z"/>
		<path style="fill:#E8B360;" d="M307.391,160.353c0.336,2.133-1.12,4.134-3.253,4.471c-2.133,0.336-4.134-1.12-4.471-3.253
			c-0.336-2.133,1.12-4.134,3.253-4.471S307.055,158.22,307.391,160.353z"/>
		<path style="fill:#E8B360;" d="M314.318,204.281c0.336,2.133-1.12,4.134-3.253,4.471c-2.133,0.336-4.134-1.12-4.471-3.253
			c-0.336-2.133,1.12-4.134,3.253-4.471C311.98,200.692,313.981,202.148,314.318,204.281z"/>
		<path style="fill:#E8B360;" d="M305.192,227.983c0.336,2.133-1.12,4.135-3.253,4.471c-2.133,0.336-4.134-1.12-4.471-3.253
			c-0.336-2.133,1.12-4.135,3.253-4.471C302.854,224.394,304.856,225.85,305.192,227.983z"/>
		<path style="fill:#EA645E;" d="M272.681,188.089c0.336,2.133-1.12,4.134-3.253,4.471c-2.133,0.336-4.134-1.12-4.471-3.253
			c-0.336-2.133,1.12-4.135,3.253-4.471C270.343,184.5,272.344,185.956,272.681,188.089z"/>
		<path style="fill:#CD73B9;" d="M263.072,211.867c0.336,2.133-1.12,4.134-3.253,4.471c-2.133,0.336-4.134-1.12-4.471-3.253
			s1.12-4.135,3.253-4.471C260.734,208.278,262.736,209.734,263.072,211.867z"/>
		<path style="fill:#CCE561;" d="M279.607,232.017c0.336,2.133-1.12,4.134-3.253,4.471s-4.134-1.12-4.471-3.253
			c-0.336-2.133,1.12-4.134,3.253-4.471C277.27,228.428,279.271,229.884,279.607,232.017z"/>
		<path style="fill:#EA645E;" d="M346.829,244.175c0.336,2.133-1.12,4.135-3.253,4.471c-2.133,0.336-4.134-1.12-4.471-3.253
			c-0.336-2.133,1.12-4.134,3.253-4.471C344.491,240.586,346.493,242.042,346.829,244.175z"/>
		<path style="fill:#CD73B9;" d="M353.948,220.295c0.336,2.133-1.12,4.134-3.253,4.471c-2.133,0.336-4.135-1.12-4.471-3.253
			c-0.336-2.133,1.12-4.134,3.253-4.471C351.61,216.706,353.611,218.162,353.948,220.295z"/>
		<path style="fill:#CD73B9;" d="M347.021,176.367c0.336,2.133-1.12,4.134-3.253,4.471c-2.133,0.336-4.134-1.12-4.471-3.253
			c-0.336-2.133,1.12-4.134,3.253-4.471C344.683,172.777,346.685,174.234,347.021,176.367z"/>
		<path style="fill:#CCE561;" d="M332.9,155.836c0.336,2.133-1.12,4.135-3.253,4.471c-2.133,0.336-4.134-1.12-4.471-3.253
			c-0.336-2.133,1.12-4.134,3.253-4.471C330.561,152.247,332.563,153.703,332.9,155.836z"/>
		<path style="fill:#CD73B9;" d="M321.244,248.209c0.336,2.133-1.12,4.135-3.253,4.471c-2.133,0.336-4.134-1.12-4.471-3.253
			c-0.336-2.133,1.12-4.134,3.253-4.471C318.906,244.62,320.908,246.077,321.244,248.209z"/>
		<path style="fill:#CCE561;" d="M339.902,200.247c0.336,2.133-1.12,4.134-3.253,4.471c-2.133,0.336-4.134-1.12-4.471-3.253
			c-0.336-2.133,1.12-4.135,3.253-4.471C337.564,196.658,339.566,198.114,339.902,200.247z"/>
	</g>
	<g>
		<g>
			<path style="fill:#D6E7FF;" d="M122.025,269.878l-24.432-10.319l-3.279-26.318l21.153-15.999l24.432,10.319l3.279,26.318
				L122.025,269.878z M98.944,258.538l22.873,9.661l19.802-14.978l-3.07-24.638l-22.872-9.661l-19.803,14.978L98.944,258.538z"/>
		</g>
		<g>
			<path style="fill:#D6E7FF;" d="M166.146,264.641l-24.432-10.319l-3.279-26.318l21.153-15.999l24.432,10.319l3.28,26.318
				L166.146,264.641z M143.065,253.301l22.872,9.661l19.803-14.978l-3.07-24.639l-22.872-9.661l-19.803,14.978L143.065,253.301z"/>
		</g>
		<g>
			<path style="fill:#D6E7FF;" d="M148.843,305.608l-24.432-10.319l-3.279-26.318l21.153-15.999l24.432,10.319l3.279,26.318
				L148.843,305.608z M125.762,294.267l22.872,9.661l19.802-14.978l-3.07-24.638l-22.872-9.661l-19.803,14.978L125.762,294.267z"/>
		</g>
		<path style="fill:#CD73B9;" d="M143.569,229.376c-0.84,1.989-3.134,2.92-5.123,2.08s-2.92-3.134-2.08-5.123
			c0.84-1.989,3.133-2.92,5.123-2.08C143.478,225.094,144.41,227.387,143.569,229.376z"/>
		<path style="fill:#E8B360;" d="M163.321,214.642c-0.84,1.989-3.134,2.92-5.123,2.08c-1.989-0.84-2.92-3.134-2.08-5.123
			c0.84-1.989,3.134-2.92,5.123-2.08C163.229,210.36,164.161,212.653,163.321,214.642z"/>
		<path style="fill:#E8B360;" d="M146.017,255.609c-0.84,1.989-3.134,2.92-5.123,2.08c-1.989-0.84-2.92-3.133-2.08-5.123
			c0.84-1.989,3.133-2.921,5.122-2.08C145.926,251.326,146.857,253.62,146.017,255.609z"/>
		<path style="fill:#E8B360;" d="M125.756,270.923c-0.84,1.989-3.134,2.921-5.123,2.08c-1.989-0.84-2.92-3.134-2.08-5.123
			c0.84-1.989,3.134-2.92,5.123-2.08C125.665,266.641,126.596,268.934,125.756,270.923z"/>
		<path style="fill:#EA645E;" d="M119.199,219.879c-0.84,1.989-3.134,2.92-5.123,2.08c-1.989-0.84-2.92-3.134-2.08-5.123
			c0.84-1.989,3.134-2.92,5.123-2.08C119.108,215.596,120.04,217.89,119.199,219.879z"/>
		<path style="fill:#CD73B9;" d="M98.488,235.003c-0.84,1.989-3.133,2.921-5.123,2.08c-1.989-0.84-2.921-3.134-2.08-5.123
			c0.84-1.989,3.134-2.92,5.123-2.08C98.397,230.721,99.328,233.014,98.488,235.003z"/>
		<path style="fill:#CCE561;" d="M101.896,260.846c-0.84,1.989-3.134,2.921-5.123,2.08c-1.989-0.84-2.92-3.134-2.08-5.123
			c0.84-1.989,3.134-2.92,5.123-2.08C101.805,256.563,102.736,258.857,101.896,260.846z"/>
		<path style="fill:#EA645E;" d="M152.574,306.653c-0.84,1.989-3.134,2.921-5.123,2.08c-1.989-0.84-2.92-3.134-2.08-5.123
			c0.84-1.989,3.133-2.92,5.123-2.08C152.483,302.371,153.414,304.664,152.574,306.653z"/>
		<path style="fill:#CD73B9;" d="M171.225,290.128c-0.84,1.989-3.134,2.92-5.123,2.08c-1.989-0.84-2.92-3.134-2.08-5.123
			c0.84-1.989,3.134-2.92,5.123-2.08C171.133,285.845,172.065,288.139,171.225,290.128z"/>
		<path style="fill:#CD73B9;" d="M188.528,249.161c-0.84,1.989-3.134,2.92-5.123,2.08c-1.989-0.84-2.92-3.134-2.08-5.123
			c0.84-1.989,3.133-2.921,5.122-2.08C188.436,244.879,189.368,247.172,188.528,249.161z"/>
		<path style="fill:#CCE561;" d="M187.37,224.27c-0.84,1.989-3.134,2.92-5.123,2.08c-1.989-0.84-2.92-3.134-2.08-5.123
			c0.84-1.989,3.134-2.92,5.123-2.08C187.279,219.987,188.21,222.281,187.37,224.27z"/>
		<path style="fill:#CD73B9;" d="M128.714,296.576c-0.84,1.989-3.134,2.921-5.123,2.08c-1.989-0.84-2.92-3.133-2.08-5.123
			c0.84-1.989,3.134-2.92,5.123-2.08C128.623,292.293,129.554,294.586,128.714,296.576z"/>
		<path style="fill:#CCE561;" d="M169.877,265.686c-0.84,1.989-3.134,2.92-5.123,2.08c-1.989-0.84-2.921-3.134-2.08-5.123
			c0.84-1.989,3.134-2.921,5.123-2.08C169.786,261.404,170.717,263.697,169.877,265.686z"/>
	</g>
	<path style="fill:#4856D8;" d="M107.01,313.605c-0.614-2.69-2.263-4.608-3.684-4.284c-0.967,0.221-1.579,1.424-1.677,3.018
		c-1.125,0.949-3.325,1.592-5.312,2.004c-0.113-1.245-0.303-2.496-0.588-3.748c-0.525-2.302-1.322-4.471-2.342-6.487
		c0.197-0.074,0.366-0.132,0.497-0.174c0.713,0.49,1.426,0.637,1.875,0.309c0.714-0.521,0.494-2.039-0.492-3.391
		c-0.986-1.352-2.365-2.026-3.079-1.505c-0.486,0.355-0.538,1.172-0.212,2.084c-0.018,0.036-0.04,0.073-0.061,0.109
		c-2.088-3.227-4.802-5.953-7.928-8.059c1.044-1.276,2.092-2.207,2.651-2.669c1.391,0.316,2.572,0.104,3.061-0.673
		c0.776-1.234-0.489-3.425-2.825-4.894c-2.336-1.468-4.859-1.658-5.634-0.424c-0.528,0.84-0.109,2.123,0.948,3.32
		c-0.085,1.005-0.631,2.266-1.323,3.506c-2.817-1.414-5.879-2.363-9.064-2.771c0.803-0.276,1.352-0.743,1.462-1.349
		c0.228-1.26-1.519-2.631-3.903-3.064c-2.384-0.432-4.502,0.238-4.731,1.498c-0.144,0.793,0.497,1.63,1.585,2.25
		c0.02,0.141,0.041,0.313,0.063,0.51c-1.436,0.101-2.882,0.312-4.329,0.642c-1.726,0.394-3.375,0.945-4.944,1.623
		c-0.651-2.198-1.418-5.444-0.943-7.287c1.394-0.78,2.213-1.853,1.993-2.82c-0.324-1.421-2.768-2.076-5.458-1.463
		c-2.69,0.613-4.608,2.263-4.284,3.684c0.204,0.895,1.249,1.485,2.667,1.647c0.705,1.168,2.499,4.483,2.535,8.047
		c-1.008,0.616-1.974,1.284-2.887,2.013c-1.774,0.73-3.457,1.607-5.029,2.625c-1.87-1.488-2.699-3.992-2.938-4.86
		c0.519-0.692,0.695-1.398,0.386-1.861c-0.491-0.735-2.017-0.578-3.409,0.351c-1.392,0.929-2.122,2.279-1.631,3.014
		c0.334,0.5,1.148,0.587,2.073,0.298c1.412,0.781,3.019,3.774,3.419,4.553c-2.303,1.778-4.329,3.861-6.035,6.175
		c-3.796-0.989-6.715-4.191-7.66-5.335c0.316-1.391,0.104-2.573-0.673-3.061c-1.234-0.776-3.425,0.489-4.894,2.825
		c-1.468,2.336-1.658,4.859-0.424,5.635c0.84,0.528,2.123,0.109,3.321-0.948c2.547,0.216,6.738,3.381,8.065,4.43
		c-1.259,2.299-2.229,4.76-2.878,7.325c-1.844-0.227-3.993-0.656-5.102-1.463c-0.187-1.39-0.797-2.406-1.659-2.539
		c-1.265-0.195-2.59,1.589-2.958,3.984c-0.369,2.395,0.358,4.494,1.624,4.689c0.797,0.123,1.616-0.54,2.207-1.645
		c0.902-0.152,3.029-0.415,5.286-0.034c-0.481,3.195-0.475,6.51,0.095,9.847c-1.543,0.535-6.622,2.176-9.123,1.531
		c-0.78-1.393-1.853-2.213-2.82-1.993c-1.421,0.324-2.076,2.768-1.463,5.458c0.614,2.69,2.263,4.608,3.684,4.284
		c0.895-0.204,1.485-1.249,1.647-2.667c1.279-0.773,5.135-2.852,9.072-2.496c0.949,3.033,2.329,5.829,4.058,8.337
		c-1.206,1.986-3.46,3.142-4.26,3.504c-0.764-0.406-1.489-0.47-1.898-0.093c-0.65,0.599-0.259,2.082,0.875,3.313
		c1.134,1.231,2.58,1.743,3.23,1.144c0.443-0.408,0.402-1.225-0.027-2.094c0.477-1.306,2.551-3.008,3.569-3.785
		c1.796,2.204,3.877,4.142,6.175,5.767c-0.618,1.289-3.135,6.312-5.432,7.668c-1.537-0.434-2.875-0.255-3.403,0.585
		c-0.776,1.234,0.489,3.425,2.825,4.893c2.336,1.468,4.859,1.658,5.634,0.424c0.489-0.777,0.167-1.934-0.721-3.05
		c0.363-1.471,1.651-5.763,4.779-8.283c2.677,1.386,5.558,2.389,8.561,2.954c0.253,2.24-0.712,4.464-1.09,5.23
		c-0.848,0.172-1.449,0.582-1.526,1.134c-0.122,0.876,1.123,1.773,2.78,2.004c1.657,0.231,3.1-0.291,3.222-1.167
		c0.083-0.596-0.468-1.202-1.35-1.601c-0.468-1.331,0.077-4.024,0.367-5.247c2.617,0.282,5.304,0.233,8.009-0.18
		c2.195,3.426,1.988,7.985,1.842,9.51c-1.207,0.76-1.893,1.745-1.689,2.64c0.324,1.421,2.768,2.076,5.458,1.463
		c2.69-0.613,4.608-2.263,4.284-3.685c-0.221-0.967-1.424-1.579-3.018-1.677c-1.803-2.137-2.501-8.157-2.611-9.206
		c2.519-0.752,4.88-1.799,7.052-3.096c1.208,1.598,2.759,3.922,2.941,5.533c-0.899,1.076-1.236,2.213-0.752,2.938
		c0.711,1.065,2.921,0.837,4.936-0.509c2.015-1.346,3.072-3.299,2.361-4.364c-0.448-0.67-1.49-0.827-2.703-0.516
		c-0.836-0.653-2.899-2.42-4.157-4.839c2.579-1.923,4.825-4.223,6.678-6.801c0.814,0.382,6.428,3.082,7.872,5.53
		c-0.434,1.537-0.255,2.875,0.585,3.403c1.234,0.776,3.425-0.489,4.894-2.825s1.658-4.859,0.424-5.634
		c-0.777-0.488-1.934-0.167-3.05,0.721c-1.497-0.369-5.915-1.695-8.414-4.943c1.232-2.354,2.174-4.866,2.775-7.484
		c0.043-0.078,0.084-0.158,0.126-0.237c2.462-0.41,4.978,0.843,5.793,1.3c0.126,0.856,0.504,1.478,1.05,1.584
		c0.868,0.169,1.83-1.026,2.15-2.669c0.32-1.642-0.125-3.111-0.993-3.28c-0.591-0.115-1.225,0.403-1.671,1.263
		c-1.332,0.389-3.924-0.269-5.157-0.629c1.327-3.124,2.101-6.501,2.225-9.988c2.693-0.754,5.369-0.618,6.469-0.513
		c0.76,1.207,1.745,1.893,2.64,1.689C106.969,318.739,107.624,316.296,107.01,313.605z"/>
	<path style="fill:#4856D8;" d="M188.694,157.476c-0.295-1.293-1.087-2.214-1.771-2.059c-0.465,0.106-0.759,0.684-0.806,1.451
		c-0.54,0.456-1.598,0.765-2.553,0.963c-0.055-0.598-0.145-1.199-0.283-1.801c-0.252-1.106-0.635-2.149-1.125-3.117
		c0.095-0.036,0.176-0.063,0.239-0.084c0.342,0.236,0.685,0.306,0.901,0.148c0.343-0.25,0.237-0.98-0.236-1.63
		c-0.474-0.65-1.136-0.973-1.48-0.723c-0.234,0.171-0.259,0.563-0.102,1.001c-0.009,0.017-0.019,0.035-0.029,0.052
		c-1.003-1.551-2.307-2.861-3.81-3.873c0.502-0.613,1.005-1.061,1.274-1.283c0.668,0.152,1.236,0.05,1.471-0.323
		c0.373-0.593-0.235-1.646-1.358-2.352c-1.123-0.706-2.335-0.797-2.708-0.204c-0.254,0.404-0.052,1.02,0.456,1.596
		c-0.041,0.483-0.303,1.089-0.636,1.685c-1.354-0.68-2.825-1.136-4.356-1.331c0.386-0.133,0.65-0.357,0.703-0.648
		c0.11-0.605-0.73-1.264-1.876-1.472c-1.146-0.208-2.163,0.114-2.273,0.72c-0.069,0.381,0.239,0.783,0.762,1.081
		c0.009,0.068,0.02,0.15,0.03,0.245c-0.69,0.049-1.385,0.15-2.08,0.308c-0.83,0.189-1.622,0.454-2.376,0.78
		c-0.313-1.056-0.681-2.616-0.453-3.502c0.67-0.375,1.064-0.89,0.958-1.355c-0.156-0.683-1.33-0.998-2.623-0.703
		c-1.293,0.295-2.215,1.088-2.059,1.771c0.098,0.43,0.6,0.714,1.281,0.792c0.339,0.561,1.201,2.154,1.218,3.867
		c-0.484,0.296-0.949,0.617-1.387,0.967c-0.852,0.351-1.661,0.772-2.417,1.261c-0.898-0.715-1.297-1.919-1.412-2.335
		c0.25-0.332,0.334-0.672,0.185-0.894c-0.236-0.353-0.969-0.278-1.638,0.169c-0.669,0.447-1.02,1.095-0.784,1.448
		c0.161,0.241,0.552,0.282,0.996,0.143c0.679,0.376,1.451,1.814,1.643,2.188c-1.107,0.854-2.08,1.855-2.9,2.967
		c-1.824-0.475-3.227-2.014-3.681-2.564c0.152-0.669,0.05-1.236-0.323-1.471c-0.593-0.373-1.646,0.235-2.352,1.358
		c-0.706,1.122-0.797,2.335-0.204,2.708c0.404,0.254,1.02,0.052,1.596-0.456c1.224,0.104,3.238,1.625,3.875,2.129
		c-0.605,1.105-1.071,2.287-1.383,3.52c-0.886-0.109-1.919-0.315-2.452-0.703c-0.09-0.668-0.383-1.156-0.797-1.22
		c-0.608-0.094-1.244,0.764-1.422,1.914c-0.177,1.151,0.172,2.16,0.78,2.253c0.383,0.059,0.777-0.26,1.06-0.791
		c0.433-0.073,1.456-0.2,2.54-0.016c-0.231,1.536-0.228,3.128,0.046,4.732c-0.741,0.257-3.182,1.046-4.384,0.736
		c-0.375-0.67-0.89-1.064-1.355-0.958c-0.683,0.156-0.998,1.33-0.703,2.623c0.295,1.293,1.088,2.214,1.771,2.059
		c0.43-0.098,0.714-0.6,0.791-1.281c0.615-0.371,2.468-1.371,4.36-1.2c0.456,1.457,1.119,2.801,1.95,4.006
		c-0.58,0.954-1.663,1.51-2.047,1.684c-0.367-0.195-0.715-0.226-0.912-0.045c-0.313,0.288-0.124,1.001,0.421,1.592
		c0.545,0.591,1.24,0.838,1.552,0.55c0.213-0.196,0.193-0.589-0.013-1.006c0.229-0.628,1.226-1.445,1.715-1.819
		c0.863,1.059,1.863,1.99,2.968,2.771c-0.297,0.62-1.507,3.033-2.611,3.685c-0.739-0.208-1.382-0.122-1.635,0.281
		c-0.373,0.593,0.235,1.646,1.357,2.352c1.123,0.706,2.335,0.797,2.708,0.204c0.235-0.374,0.08-0.929-0.346-1.466
		c0.174-0.707,0.793-2.77,2.296-3.98c1.286,0.666,2.671,1.148,4.114,1.42c0.121,1.076-0.342,2.145-0.524,2.513
		c-0.407,0.082-0.696,0.28-0.733,0.545c-0.059,0.421,0.539,0.852,1.336,0.963c0.796,0.111,1.49-0.14,1.548-0.561
		c0.04-0.286-0.225-0.577-0.649-0.769c-0.225-0.64,0.037-1.934,0.177-2.522c1.258,0.136,2.549,0.112,3.849-0.086
		c1.055,1.646,0.955,3.837,0.885,4.57c-0.58,0.365-0.91,0.839-0.812,1.269c0.156,0.683,1.33,0.998,2.623,0.703
		c1.293-0.295,2.214-1.087,2.059-1.77c-0.106-0.465-0.684-0.759-1.45-0.806c-0.866-1.027-1.202-3.92-1.255-4.424
		c1.211-0.361,2.345-0.864,3.389-1.488c0.58,0.768,1.326,1.885,1.413,2.659c-0.432,0.517-0.594,1.064-0.361,1.412
		c0.342,0.512,1.404,0.402,2.372-0.244c0.968-0.647,1.476-1.586,1.135-2.097c-0.215-0.322-0.716-0.398-1.299-0.248
		c-0.402-0.314-1.393-1.163-1.998-2.326c1.239-0.924,2.319-2.029,3.209-3.268c0.391,0.184,3.089,1.481,3.783,2.657
		c-0.208,0.739-0.122,1.382,0.281,1.635c0.593,0.373,1.646-0.235,2.352-1.358s0.797-2.335,0.204-2.708
		c-0.374-0.235-0.929-0.08-1.466,0.346c-0.719-0.177-2.842-0.815-4.043-2.375c0.592-1.131,1.045-2.338,1.334-3.596
		c0.021-0.038,0.04-0.076,0.061-0.114c1.183-0.197,2.392,0.405,2.784,0.625c0.06,0.411,0.242,0.71,0.505,0.761
		c0.417,0.081,0.88-0.493,1.033-1.282c0.154-0.789-0.06-1.495-0.477-1.576c-0.284-0.055-0.589,0.194-0.803,0.607
		c-0.64,0.187-1.886-0.129-2.478-0.302c0.638-1.501,1.01-3.124,1.069-4.8c1.294-0.362,2.58-0.297,3.108-0.246
		c0.365,0.58,0.839,0.91,1.269,0.811C188.674,159.943,188.989,158.768,188.694,157.476z"/>
	<path style="fill:#4856D8;" d="M438.446,122.098c-0.613-2.69-2.263-4.608-3.684-4.284c-0.967,0.221-1.579,1.424-1.677,3.018
		c-1.125,0.949-3.325,1.592-5.312,2.004c-0.113-1.245-0.302-2.496-0.588-3.748c-0.525-2.302-1.322-4.472-2.342-6.487
		c0.197-0.074,0.366-0.132,0.497-0.174c0.713,0.49,1.426,0.637,1.875,0.309c0.714-0.521,0.494-2.039-0.492-3.391
		c-0.986-1.352-2.365-2.026-3.079-1.505c-0.486,0.355-0.539,1.172-0.212,2.084c-0.018,0.036-0.04,0.073-0.06,0.109
		c-2.088-3.227-4.802-5.953-7.928-8.059c1.044-1.276,2.092-2.207,2.651-2.669c1.391,0.316,2.572,0.104,3.061-0.673
		c0.776-1.234-0.489-3.425-2.825-4.894c-2.336-1.468-4.859-1.658-5.634-0.424c-0.528,0.84-0.109,2.123,0.948,3.32
		c-0.085,1.005-0.631,2.265-1.323,3.506c-2.817-1.414-5.879-2.363-9.064-2.771c0.803-0.276,1.352-0.743,1.462-1.349
		c0.228-1.26-1.519-2.631-3.903-3.064c-2.384-0.432-4.502,0.238-4.731,1.498c-0.144,0.793,0.497,1.63,1.585,2.25
		c0.02,0.141,0.042,0.313,0.063,0.51c-1.436,0.101-2.882,0.312-4.329,0.642c-1.726,0.394-3.375,0.945-4.944,1.623
		c-0.651-2.197-1.418-5.444-0.943-7.287c1.394-0.78,2.213-1.853,1.993-2.82c-0.324-1.421-2.768-2.076-5.458-1.463
		c-2.69,0.614-4.608,2.263-4.284,3.684c0.204,0.895,1.249,1.485,2.667,1.647c0.705,1.168,2.499,4.483,2.535,8.047
		c-1.008,0.616-1.975,1.284-2.887,2.013c-1.774,0.73-3.457,1.608-5.029,2.625c-1.87-1.488-2.699-3.992-2.939-4.86
		c0.519-0.692,0.695-1.398,0.386-1.861c-0.491-0.735-2.017-0.578-3.409,0.351c-1.392,0.929-2.122,2.279-1.631,3.014
		c0.334,0.501,1.148,0.587,2.073,0.298c1.412,0.782,3.018,3.774,3.419,4.553c-2.303,1.778-4.329,3.861-6.035,6.175
		c-3.796-0.989-6.715-4.19-7.66-5.335c0.316-1.391,0.104-2.573-0.673-3.061c-1.234-0.776-3.425,0.489-4.893,2.825
		c-1.468,2.336-1.658,4.859-0.424,5.634c0.84,0.528,2.123,0.109,3.321-0.948c2.547,0.216,6.738,3.381,8.065,4.43
		c-1.259,2.299-2.229,4.76-2.878,7.325c-1.844-0.227-3.993-0.656-5.102-1.463c-0.187-1.39-0.798-2.406-1.659-2.539
		c-1.265-0.195-2.59,1.589-2.958,3.984c-0.369,2.395,0.358,4.494,1.624,4.689c0.797,0.123,1.617-0.54,2.207-1.645
		c0.902-0.152,3.029-0.415,5.286-0.034c-0.481,3.195-0.474,6.51,0.095,9.847c-1.543,0.535-6.622,2.176-9.123,1.531
		c-0.78-1.393-1.853-2.213-2.82-1.993c-1.421,0.324-2.076,2.768-1.463,5.458c0.613,2.69,2.263,4.608,3.684,4.284
		c0.895-0.204,1.485-1.249,1.647-2.667c1.279-0.773,5.135-2.852,9.072-2.496c0.949,3.033,2.329,5.829,4.058,8.337
		c-1.206,1.986-3.46,3.142-4.26,3.504c-0.764-0.406-1.489-0.47-1.898-0.093c-0.65,0.599-0.259,2.082,0.875,3.313
		c1.134,1.231,2.58,1.743,3.23,1.144c0.443-0.408,0.402-1.225-0.027-2.094c0.477-1.306,2.551-3.008,3.569-3.785
		c1.796,2.205,3.877,4.142,6.175,5.767c-0.618,1.289-3.135,6.312-5.432,7.667c-1.537-0.434-2.875-0.255-3.403,0.585
		c-0.776,1.234,0.489,3.425,2.825,4.894c2.336,1.468,4.859,1.658,5.634,0.424c0.489-0.777,0.167-1.934-0.721-3.05
		c0.363-1.471,1.651-5.763,4.779-8.283c2.677,1.386,5.558,2.389,8.561,2.954c0.253,2.24-0.712,4.464-1.09,5.23
		c-0.848,0.171-1.449,0.582-1.526,1.134c-0.122,0.876,1.122,1.773,2.78,2.004c1.657,0.231,3.1-0.291,3.222-1.167
		c0.083-0.596-0.468-1.202-1.35-1.601c-0.468-1.331,0.077-4.024,0.367-5.247c2.617,0.282,5.304,0.233,8.009-0.18
		c2.195,3.426,1.988,7.985,1.842,9.51c-1.207,0.76-1.893,1.745-1.689,2.64c0.324,1.421,2.768,2.076,5.458,1.463
		c2.69-0.614,4.608-2.263,4.284-3.684c-0.221-0.967-1.424-1.579-3.018-1.677c-1.803-2.137-2.501-8.157-2.611-9.206
		c2.519-0.752,4.88-1.799,7.051-3.096c1.208,1.598,2.759,3.922,2.941,5.533c-0.899,1.076-1.236,2.213-0.752,2.938
		c0.711,1.065,2.921,0.837,4.936-0.509c2.015-1.346,3.072-3.299,2.361-4.364c-0.448-0.67-1.49-0.827-2.703-0.516
		c-0.836-0.653-2.899-2.42-4.157-4.839c2.579-1.923,4.825-4.223,6.677-6.801c0.814,0.382,6.428,3.082,7.872,5.53
		c-0.434,1.537-0.255,2.875,0.585,3.403c1.234,0.776,3.425-0.489,4.893-2.825c1.468-2.336,1.658-4.859,0.424-5.635
		c-0.777-0.488-1.934-0.167-3.05,0.721c-1.497-0.369-5.915-1.695-8.414-4.943c1.233-2.354,2.174-4.866,2.775-7.484
		c0.043-0.078,0.084-0.158,0.126-0.237c2.462-0.41,4.978,0.843,5.793,1.3c0.126,0.856,0.504,1.478,1.05,1.584
		c0.868,0.169,1.83-1.026,2.15-2.669c0.32-1.643-0.125-3.111-0.993-3.28c-0.591-0.115-1.225,0.403-1.671,1.263
		c-1.332,0.389-3.924-0.269-5.157-0.629c1.327-3.124,2.101-6.501,2.225-9.988c2.693-0.754,5.369-0.618,6.469-0.513
		c0.76,1.207,1.745,1.893,2.64,1.689C438.404,127.232,439.059,124.788,438.446,122.098z"/>
	<path style="fill:#4856D8;" d="M490.565,314.823c-0.535-2.346-1.974-4.019-3.214-3.736c-0.844,0.192-1.377,1.242-1.463,2.633
		c-0.981,0.827-2.9,1.388-4.633,1.748c-0.099-1.086-0.264-2.177-0.513-3.269c-0.458-2.008-1.153-3.9-2.043-5.658
		c0.172-0.065,0.319-0.115,0.433-0.152c0.622,0.428,1.243,0.555,1.636,0.269c0.623-0.454,0.431-1.779-0.429-2.958
		c-0.86-1.179-2.062-1.767-2.685-1.312c-0.424,0.309-0.47,1.022-0.185,1.817c-0.016,0.031-0.035,0.063-0.053,0.095
		c-1.821-2.814-4.188-5.192-6.915-7.029c0.911-1.113,1.825-1.925,2.313-2.328c1.213,0.275,2.244,0.091,2.67-0.587
		c0.677-1.077-0.426-2.987-2.464-4.268c-2.037-1.281-4.238-1.446-4.914-0.37c-0.461,0.733-0.095,1.852,0.827,2.896
		c-0.074,0.876-0.55,1.976-1.154,3.058c-2.457-1.234-5.127-2.061-7.906-2.417c0.7-0.241,1.18-0.648,1.275-1.177
		c0.199-1.099-1.325-2.295-3.404-2.672s-3.927,0.208-4.126,1.306c-0.126,0.692,0.433,1.422,1.383,1.962
		c0.017,0.123,0.036,0.273,0.055,0.444c-1.252,0.088-2.513,0.272-3.775,0.56c-1.506,0.343-2.943,0.824-4.312,1.415
		c-0.568-1.917-1.237-4.748-0.822-6.356c1.215-0.68,1.93-1.616,1.738-2.46c-0.283-1.24-2.414-1.811-4.76-1.276
		c-2.346,0.535-4.019,1.974-3.736,3.213c0.178,0.781,1.09,1.295,2.326,1.436c0.615,1.018,2.179,3.91,2.212,7.018
		c-0.879,0.537-1.722,1.12-2.518,1.755c-1.547,0.637-3.015,1.402-4.386,2.289c-1.631-1.298-2.354-3.482-2.563-4.239
		c0.453-0.603,0.606-1.219,0.337-1.623c-0.428-0.641-1.759-0.504-2.973,0.306c-1.214,0.811-1.851,1.987-1.422,2.629
		c0.292,0.436,1.002,0.512,1.808,0.26c1.232,0.682,2.633,3.292,2.982,3.971c-2.008,1.551-3.776,3.367-5.264,5.386
		c-3.311-0.863-5.857-3.655-6.681-4.653c0.275-1.213,0.091-2.244-0.587-2.67c-1.076-0.677-2.987,0.427-4.268,2.464
		c-1.281,2.038-1.446,4.238-0.37,4.914c0.733,0.461,1.852,0.095,2.896-0.827c2.222,0.189,5.877,2.949,7.034,3.864
		c-1.098,2.006-1.944,4.151-2.51,6.389c-1.608-0.198-3.483-0.572-4.45-1.276c-0.163-1.212-0.695-2.099-1.447-2.214
		c-1.104-0.17-2.259,1.386-2.58,3.474c-0.321,2.089,0.313,3.92,1.416,4.09c0.695,0.107,1.41-0.471,1.925-1.435
		c0.786-0.132,2.642-0.362,4.611-0.029c-0.42,2.787-0.414,5.678,0.083,8.589c-1.346,0.466-5.775,1.898-7.957,1.336
		c-0.68-1.215-1.616-1.93-2.46-1.738c-1.24,0.283-1.811,2.414-1.276,4.76c0.535,2.346,1.974,4.019,3.213,3.736
		c0.781-0.178,1.295-1.09,1.437-2.326c1.115-0.674,4.478-2.488,7.912-2.177c0.828,2.645,2.032,5.084,3.54,7.271
		c-1.052,1.732-3.018,2.74-3.716,3.056c-0.666-0.354-1.298-0.41-1.656-0.081c-0.567,0.522-0.225,1.816,0.763,2.89
		c0.989,1.074,2.25,1.521,2.817,0.998c0.386-0.355,0.35-1.069-0.023-1.826c0.416-1.139,2.224-2.623,3.113-3.301
		c1.567,1.923,3.381,3.613,5.386,5.03c-0.539,1.124-2.735,5.505-4.738,6.687c-1.341-0.378-2.508-0.222-2.968,0.51
		c-0.677,1.076,0.427,2.987,2.464,4.268c2.037,1.281,4.238,1.446,4.914,0.37c0.426-0.678,0.146-1.686-0.629-2.66
		c0.316-1.283,1.44-5.027,4.168-7.224c2.335,1.209,4.848,2.084,7.467,2.576c0.22,1.953-0.621,3.893-0.951,4.562
		c-0.739,0.149-1.263,0.508-1.33,0.989c-0.107,0.764,0.979,1.546,2.425,1.748c1.445,0.202,2.704-0.254,2.81-1.018
		c0.072-0.52-0.408-1.048-1.178-1.396c-0.408-1.161,0.067-3.51,0.32-4.577c2.283,0.246,4.626,0.203,6.985-0.157
		c1.914,2.988,1.734,6.964,1.607,8.294c-1.053,0.663-1.651,1.522-1.473,2.303c0.283,1.24,2.414,1.811,4.76,1.276
		c2.346-0.535,4.019-1.974,3.737-3.214c-0.193-0.844-1.242-1.377-2.633-1.463c-1.572-1.864-2.182-7.114-2.277-8.03
		c2.197-0.656,4.256-1.569,6.15-2.701c1.053,1.393,2.406,3.421,2.565,4.826c-0.784,0.939-1.078,1.93-0.656,2.562
		c0.62,0.928,2.548,0.73,4.305-0.444c1.758-1.174,2.68-2.878,2.06-3.806c-0.39-0.585-1.299-0.722-2.358-0.451
		c-0.729-0.569-2.529-2.111-3.626-4.221c2.249-1.677,4.209-3.683,5.824-5.932c0.71,0.333,5.606,2.688,6.866,4.823
		c-0.378,1.341-0.222,2.508,0.51,2.968c1.076,0.677,2.987-0.427,4.268-2.464c1.281-2.038,1.446-4.238,0.37-4.914
		c-0.678-0.426-1.686-0.145-2.66,0.629c-1.305-0.322-5.159-1.478-7.338-4.311c1.075-2.053,1.896-4.244,2.42-6.527
		c0.038-0.068,0.073-0.138,0.11-0.207c2.147-0.358,4.342,0.735,5.052,1.134c0.11,0.746,0.439,1.289,0.916,1.382
		c0.757,0.147,1.596-0.895,1.875-2.328c0.279-1.433-0.109-2.714-0.866-2.861c-0.515-0.1-1.068,0.352-1.457,1.101
		c-1.162,0.34-3.423-0.235-4.498-0.549c1.157-2.725,1.833-5.671,1.941-8.711c2.349-0.657,4.683-0.539,5.642-0.447
		c0.663,1.053,1.522,1.651,2.303,1.473C490.529,319.301,491.1,317.17,490.565,314.823z"/>
	<path style="fill:#4856D8;" d="M218.369,67.651c-0.535-2.346-1.974-4.019-3.213-3.736c-0.844,0.192-1.377,1.242-1.463,2.633
		c-0.981,0.827-2.9,1.388-4.633,1.748c-0.099-1.086-0.264-2.177-0.513-3.269c-0.458-2.008-1.153-3.9-2.043-5.658
		c0.172-0.064,0.319-0.115,0.433-0.152c0.622,0.428,1.243,0.555,1.636,0.269c0.623-0.454,0.431-1.779-0.429-2.958
		s-2.062-1.767-2.685-1.312c-0.424,0.309-0.47,1.022-0.185,1.817c-0.016,0.032-0.035,0.063-0.053,0.095
		c-1.821-2.814-4.188-5.192-6.915-7.029c0.911-1.113,1.825-1.925,2.313-2.328c1.213,0.275,2.244,0.091,2.67-0.587
		c0.677-1.076-0.427-2.987-2.464-4.268c-2.037-1.281-4.238-1.446-4.914-0.37c-0.461,0.733-0.095,1.852,0.827,2.896
		c-0.074,0.876-0.55,1.976-1.154,3.057c-2.457-1.234-5.127-2.061-7.906-2.416c0.7-0.241,1.18-0.649,1.275-1.177
		c0.199-1.099-1.325-2.295-3.404-2.672c-2.079-0.377-3.927,0.208-4.126,1.306c-0.125,0.692,0.433,1.422,1.383,1.962
		c0.017,0.123,0.036,0.272,0.055,0.444c-1.252,0.088-2.513,0.272-3.775,0.56c-1.506,0.343-2.943,0.824-4.312,1.415
		c-0.568-1.917-1.237-4.748-0.822-6.356c1.215-0.681,1.93-1.616,1.738-2.46c-0.283-1.24-2.414-1.811-4.76-1.276
		c-2.346,0.535-4.019,1.974-3.736,3.213c0.178,0.781,1.09,1.295,2.326,1.437c0.615,1.018,2.179,3.91,2.211,7.019
		c-0.879,0.537-1.722,1.12-2.518,1.756c-1.547,0.637-3.015,1.402-4.386,2.289c-1.631-1.298-2.354-3.482-2.563-4.239
		c0.453-0.603,0.606-1.219,0.337-1.623c-0.428-0.641-1.759-0.504-2.973,0.306c-1.214,0.81-1.851,1.987-1.422,2.629
		c0.291,0.437,1.002,0.512,1.808,0.26c1.232,0.682,2.633,3.292,2.982,3.971c-2.008,1.551-3.776,3.368-5.264,5.386
		c-3.311-0.863-5.857-3.655-6.681-4.653c0.275-1.213,0.091-2.244-0.587-2.67c-1.076-0.677-2.987,0.427-4.268,2.464
		c-1.281,2.037-1.446,4.238-0.37,4.914c0.733,0.461,1.852,0.095,2.896-0.827c2.222,0.188,5.877,2.949,7.034,3.864
		c-1.098,2.006-1.944,4.151-2.51,6.389c-1.608-0.198-3.483-0.572-4.45-1.276c-0.163-1.212-0.695-2.099-1.447-2.214
		c-1.104-0.17-2.259,1.386-2.58,3.474c-0.322,2.089,0.313,3.92,1.416,4.09c0.695,0.107,1.41-0.471,1.925-1.435
		c0.786-0.132,2.642-0.362,4.611-0.029c-0.42,2.787-0.414,5.678,0.083,8.589c-1.346,0.466-5.775,1.898-7.957,1.336
		c-0.681-1.215-1.616-1.93-2.46-1.738c-1.24,0.283-1.811,2.414-1.276,4.76c0.535,2.346,1.974,4.019,3.214,3.737
		c0.781-0.178,1.295-1.09,1.436-2.326c1.116-0.674,4.479-2.488,7.913-2.177c0.828,2.645,2.031,5.084,3.54,7.271
		c-1.052,1.732-3.018,2.741-3.716,3.056c-0.666-0.354-1.299-0.41-1.656-0.081c-0.567,0.522-0.225,1.816,0.763,2.89
		c0.989,1.074,2.25,1.521,2.817,0.998c0.386-0.355,0.35-1.069-0.023-1.826c0.416-1.139,2.225-2.623,3.113-3.301
		c1.567,1.923,3.381,3.613,5.386,5.03c-0.539,1.124-2.735,5.505-4.738,6.687c-1.341-0.378-2.508-0.222-2.968,0.51
		c-0.677,1.076,0.426,2.987,2.464,4.268c2.038,1.281,4.238,1.446,4.914,0.37c0.426-0.678,0.145-1.687-0.629-2.66
		c0.316-1.283,1.44-5.027,4.168-7.224c2.335,1.209,4.848,2.084,7.467,2.576c0.22,1.953-0.621,3.893-0.951,4.562
		c-0.739,0.149-1.263,0.508-1.33,0.989c-0.107,0.764,0.979,1.546,2.424,1.748c1.445,0.201,2.704-0.254,2.81-1.018
		c0.072-0.52-0.408-1.048-1.178-1.396c-0.408-1.161,0.067-3.51,0.32-4.577c2.283,0.246,4.626,0.203,6.985-0.157
		c1.914,2.988,1.734,6.964,1.607,8.294c-1.053,0.663-1.651,1.522-1.473,2.303c0.283,1.24,2.414,1.811,4.76,1.276
		c2.346-0.535,4.019-1.974,3.736-3.214c-0.192-0.844-1.242-1.377-2.632-1.463c-1.573-1.864-2.182-7.114-2.277-8.03
		c2.197-0.656,4.256-1.569,6.15-2.701c1.054,1.393,2.407,3.421,2.565,4.826c-0.784,0.939-1.078,1.93-0.656,2.562
		c0.62,0.929,2.548,0.73,4.305-0.444c1.757-1.174,2.68-2.878,2.06-3.806c-0.39-0.585-1.299-0.722-2.358-0.45
		c-0.729-0.569-2.529-2.111-3.626-4.221c2.249-1.677,4.209-3.683,5.824-5.932c0.71,0.333,5.606,2.688,6.866,4.823
		c-0.378,1.341-0.222,2.508,0.51,2.968c1.076,0.677,2.987-0.427,4.268-2.464c1.281-2.037,1.446-4.238,0.37-4.914
		c-0.678-0.426-1.686-0.145-2.66,0.629c-1.305-0.322-5.159-1.478-7.339-4.311c1.075-2.053,1.896-4.244,2.42-6.527
		c0.038-0.068,0.073-0.138,0.11-0.207c2.147-0.358,4.342,0.735,5.052,1.134c0.11,0.746,0.439,1.289,0.916,1.382
		c0.757,0.147,1.596-0.895,1.875-2.328c0.279-1.433-0.109-2.713-0.866-2.861c-0.515-0.1-1.068,0.351-1.457,1.101
		c-1.161,0.34-3.423-0.235-4.498-0.549c1.157-2.725,1.833-5.671,1.941-8.711c2.349-0.657,4.683-0.539,5.642-0.447
		c0.663,1.053,1.522,1.651,2.303,1.473C218.333,72.129,218.904,69.998,218.369,67.651z"/>
	<path style="fill:#4856D8;" d="M391.934,343.807c-0.33-1.447-1.217-2.479-1.982-2.304c-0.52,0.119-0.849,0.766-0.902,1.624
		c-0.605,0.51-1.789,0.856-2.857,1.078c-0.061-0.67-0.163-1.343-0.316-2.016c-0.282-1.238-0.711-2.405-1.26-3.49
		c0.106-0.04,0.197-0.071,0.267-0.094c0.383,0.264,0.767,0.343,1.009,0.166c0.384-0.28,0.266-1.097-0.265-1.824
		c-0.53-0.727-1.272-1.09-1.656-0.809c-0.262,0.191-0.29,0.63-0.114,1.121c-0.01,0.019-0.021,0.039-0.033,0.059
		c-1.123-1.736-2.583-3.202-4.264-4.335c0.561-0.686,1.125-1.187,1.426-1.436c0.748,0.17,1.384,0.056,1.646-0.362
		c0.417-0.664-0.263-1.842-1.52-2.632c-1.257-0.79-2.613-0.892-3.031-0.228c-0.284,0.452-0.059,1.142,0.51,1.786
		c-0.046,0.54-0.339,1.219-0.712,1.886c-1.515-0.761-3.162-1.271-4.876-1.49c0.432-0.149,0.728-0.4,0.786-0.726
		c0.123-0.677-0.817-1.415-2.099-1.648c-1.282-0.233-2.422,0.128-2.545,0.806c-0.077,0.427,0.267,0.877,0.853,1.21
		c0.011,0.076,0.022,0.168,0.034,0.274c-0.772,0.054-1.55,0.168-2.328,0.345c-0.929,0.212-1.815,0.508-2.659,0.873
		c-0.35-1.182-0.763-2.928-0.507-3.92c0.75-0.42,1.191-0.997,1.072-1.517c-0.174-0.765-1.489-1.117-2.936-0.787
		c-1.447,0.33-2.479,1.217-2.304,1.982c0.11,0.481,0.672,0.799,1.434,0.886c0.38,0.628,1.344,2.411,1.364,4.328
		c-0.542,0.331-1.062,0.691-1.553,1.083c-0.954,0.393-1.859,0.865-2.705,1.412c-1.006-0.801-1.452-2.148-1.581-2.614
		c0.279-0.372,0.374-0.752,0.208-1.001c-0.264-0.396-1.085-0.311-1.834,0.189c-0.749,0.5-1.141,1.226-0.877,1.621
		c0.18,0.269,0.618,0.315,1.115,0.16c0.759,0.42,1.624,2.03,1.839,2.449c-1.239,0.957-2.329,2.077-3.246,3.322
		c-2.042-0.532-3.612-2.254-4.12-2.87c0.17-0.748,0.056-1.384-0.362-1.647c-0.664-0.417-1.842,0.263-2.632,1.52
		c-0.79,1.257-0.892,2.613-0.228,3.031c0.452,0.284,1.142,0.059,1.786-0.51c1.37,0.116,3.625,1.819,4.338,2.383
		c-0.677,1.237-1.199,2.56-1.548,3.94c-0.992-0.122-2.148-0.353-2.744-0.787c-0.1-0.748-0.429-1.294-0.892-1.365
		c-0.681-0.105-1.393,0.855-1.591,2.143c-0.198,1.288,0.193,2.417,0.873,2.522c0.428,0.066,0.87-0.29,1.187-0.885
		c0.485-0.082,1.629-0.223,2.844-0.018c-0.259,1.719-0.255,3.502,0.051,5.297c-0.83,0.288-3.562,1.171-4.907,0.824
		c-0.42-0.75-0.997-1.191-1.517-1.072c-0.764,0.174-1.117,1.489-0.787,2.936c0.33,1.447,1.217,2.479,1.982,2.304
		c0.481-0.11,0.799-0.672,0.886-1.434c0.688-0.416,2.762-1.534,4.88-1.343c0.511,1.631,1.253,3.135,2.183,4.484
		c-0.649,1.068-1.861,1.69-2.292,1.885c-0.411-0.218-0.801-0.253-1.021-0.05c-0.35,0.322-0.139,1.12,0.471,1.782
		c0.61,0.662,1.388,0.938,1.738,0.616c0.238-0.219,0.216-0.659-0.014-1.126c0.256-0.702,1.372-1.618,1.92-2.036
		c0.966,1.186,2.085,2.228,3.322,3.102c-0.333,0.693-1.687,3.395-2.922,4.124c-0.827-0.233-1.547-0.137-1.831,0.315
		c-0.417,0.664,0.263,1.842,1.52,2.632c1.257,0.79,2.613,0.892,3.031,0.228c0.263-0.418,0.09-1.04-0.388-1.641
		c0.195-0.791,0.888-3.1,2.57-4.455c1.44,0.745,2.99,1.285,4.605,1.589c0.136,1.205-0.383,2.401-0.586,2.813
		c-0.456,0.092-0.779,0.313-0.821,0.61c-0.066,0.471,0.604,0.953,1.495,1.078c0.892,0.124,1.667-0.157,1.733-0.628
		c0.045-0.321-0.252-0.646-0.726-0.861c-0.252-0.716,0.041-2.165,0.198-2.823c1.408,0.152,2.853,0.125,4.308-0.097
		c1.181,1.842,1.069,4.295,0.991,5.115c-0.649,0.409-1.018,0.939-0.908,1.42c0.174,0.765,1.489,1.117,2.936,0.787
		c1.447-0.33,2.479-1.217,2.304-1.982c-0.119-0.52-0.766-0.849-1.624-0.902c-0.97-1.15-1.346-4.388-1.404-4.952
		c1.355-0.404,2.625-0.967,3.793-1.666c0.65,0.859,1.484,2.11,1.582,2.976c-0.484,0.579-0.665,1.19-0.405,1.58
		c0.383,0.573,1.571,0.45,2.655-0.274c1.084-0.724,1.653-1.775,1.27-2.347c-0.241-0.361-0.801-0.445-1.454-0.278
		c-0.45-0.351-1.56-1.302-2.236-2.603c1.387-1.035,2.596-2.271,3.592-3.658c0.438,0.206,3.457,1.658,4.235,2.975
		c-0.233,0.827-0.137,1.546,0.315,1.831c0.664,0.417,1.842-0.263,2.632-1.52c0.79-1.257,0.892-2.614,0.228-3.031
		c-0.418-0.263-1.04-0.09-1.641,0.388c-0.805-0.199-3.182-0.912-4.526-2.659c0.663-1.266,1.169-2.617,1.493-4.025
		c0.023-0.042,0.045-0.085,0.068-0.128c1.324-0.221,2.678,0.453,3.116,0.7c0.068,0.46,0.271,0.795,0.565,0.852
		c0.467,0.091,0.985-0.552,1.156-1.435c0.172-0.884-0.067-1.674-0.534-1.764c-0.318-0.062-0.659,0.217-0.899,0.679
		c-0.716,0.21-2.111-0.145-2.774-0.339c0.714-1.68,1.13-3.497,1.197-5.372c1.449-0.405,2.888-0.332,3.479-0.276
		c0.409,0.649,0.939,1.018,1.42,0.908C391.911,346.569,392.264,345.255,391.934,343.807z"/>
	<g>
		<path style="fill:#01284C;" d="M212.061,193.83c5.78-4.661,14.43-5.853,21.622-6.128c7.018-0.268,15.179,0.229,21.31,3.989
			c0.766,0.47,1.466-0.734,0.703-1.203c-6.54-4.011-15.398-4.534-22.866-4.141c-7.385,0.389-15.84,1.727-21.754,6.497
			C210.379,193.408,211.37,194.388,212.061,193.83L212.061,193.83z"/>
	</g>
	<g>
		<path style="fill:#FF9776;" d="M254.583,208.474c0,0,40.126,7.431,52.015,19.32c11.889,11.889,53.501,63.904,56.474,62.418
			c2.972-1.486,52.015-66.876,52.015-66.876l7.431,8.917c0,0-40.126,98.085-63.904,99.571
			c-23.778,1.486-80.252-52.015-80.252-52.015L254.583,208.474z"/>
		<g>
			<defs>
				<path id="XMLID_16_" d="M230.12,322.084c1.468-50.876-20.722-116.589-23.018-123.24c-9.26,3.53-50.618,19.66-55.312,27.873
					c-5.289,9.256,19.835,177.19,19.835,204.959c0,27.769-10.998,54.963-10.998,54.963s23.974,0.959,52.016,1.958l11.287-13.828
					C223.93,474.769,228.572,375.73,230.12,322.084z"/>
			</defs>
			<use xlink:href="#XMLID_16_"  style="overflow:visible;fill:#FFFFFF;"/>
			<clipPath id="XMLID_00000129920880217480344850000009574326411197412756_">
				<use xlink:href="#XMLID_16_"  style="overflow:visible;"/>
			</clipPath>
			<path style="clip-path:url(#XMLID_00000129920880217480344850000009574326411197412756_);fill:#DEE3FF;" d="M162.546,373.667
				l73.763-2.579v-27.339c0,0-60.868-7.222-60.352-11.864c0.516-4.642,6.706-54.162,6.706-54.162s-36.108,86.659-21.665,95.944"/>
			<polyline style="clip-path:url(#XMLID_00000129920880217480344850000009574326411197412756_);fill:#DEE3FF;" points="
				202.034,200.807 198.654,227.171 211.55,242.13 208.455,266.89 229.077,295.701 203.649,270.164 208.455,242.646 
				195.559,228.203 202.034,200.807 			"/>
		</g>
		<path style="fill:none;" d="M208.94,198.149c0,0-0.179,0.067-0.504,0.189l26.65,0.927
			C222.199,198.554,208.94,198.149,208.94,198.149z"/>
		<g>
			<defs>
				<path id="XMLID_15_" d="M410.66,227.687c0,0-44.616,61.038-47.588,62.524c-2.972,1.486-44.584-50.529-56.474-62.418
					c-1.387-1.387-3.163-2.713-5.21-3.974c-7.591-6.577-20.871-15.982-38.063-19.776c-0.547,1.537-1.046,3.54-1.5,5.954
					c-4.397-0.997-7.242-1.524-7.242-1.524l5.392,16.176c-6.324,72.633,0.143,220.502,2.268,265.564
					c19.75,0.555,35.085,0.821,37.227,0.392c6.143-1.229-12.657-118.135,2.813-190.001c18.322,14.851,42.697,32.071,56.329,31.219
					c23.778-1.486,62.879-92.788,62.879-92.788L410.66,227.687z"/>
			</defs>
			<use xlink:href="#XMLID_15_"  style="overflow:visible;fill:#FFFFFF;"/>
			<clipPath id="XMLID_00000091736602980632315370000009874099237008467329_">
				<use xlink:href="#XMLID_15_"  style="overflow:visible;"/>
			</clipPath>
			<path style="clip-path:url(#XMLID_00000091736602980632315370000009874099237008467329_);fill:#DEE3FF;" d="M310.073,308.672
				l-17.022-17.538c0,0-7.737,71.184,9.285,101.618C319.358,423.186,310.073,308.672,310.073,308.672z"/>
			<polygon style="clip-path:url(#XMLID_00000091736602980632315370000009874099237008467329_);fill:#DEE3FF;" points="
				261.585,291.134 275.513,247.289 268.291,239.035 278.092,227.171 267.219,205.018 283.25,228.203 272.418,239.035 
				279.639,248.836 			"/>
		</g>
		<path style="fill:#FF7066;" d="M263.324,204.043c-5.525-2.036-10.379-3.472-13.683-3.772c-4.189-0.381-9.342-0.718-14.555-1.006
			l-26.65-0.927c-0.311,0.117-0.76,0.287-1.335,0.506c2.296,6.651,24.485,72.363,23.018,123.24
			c-1.548,53.646-6.19,152.685-6.19,152.685l-11.287,13.828c16.475,0.587,34.352,1.188,49.6,1.616
			C259.839,439.254,251.027,238.574,263.324,204.043z"/>
		<path style="fill:#FF9776;" d="M138.227,249.673c7.529-28.232,47.231-30.933,57.649-3.635c1.228,3.219-8.429,6.607-9.086,8.989
			c-4.599,16.674-19.908,79.825-17.07,81.729c2.839,1.904,82.565,13.738,82.565,13.738v8.162c0,0-108.652,15.76-122.056-4.757
			s6.261-97.715,6.261-97.715L138.227,249.673z"/>
		<g>
			<defs>
				<path id="XMLID_1_" d="M249.393,354.404c0.683,3.345,3.524,5.819,6.893,6.376c5.704,0.944,16.119,2.099,21.845-0.765
					c8.162-4.081,26.814,0.454,25.453-3.627c-1.36-4.081-18.652-9.976-26.814-5.895c0,0-17.683-3.877-24.485-1.258
					C249.452,350.326,248.98,352.38,249.393,354.404z"/>
			</defs>
			<use xlink:href="#XMLID_1_"  style="overflow:visible;fill:#FF9776;"/>
			<clipPath id="XMLID_00000084529173581776243000000012896767739434415804_">
				<use xlink:href="#XMLID_1_"  style="overflow:visible;"/>
			</clipPath>
			<g style="clip-path:url(#XMLID_00000084529173581776243000000012896767739434415804_);">
				<g>
					<path style="fill:#FF9776;" d="M267.348,347.263c0.168-0.049,0.337-0.098,0.506-0.147c1.255-0.365,2.166-1.777,1.746-3.075
						c-0.412-1.274-1.73-2.138-3.075-1.746c-0.169,0.049-0.337,0.098-0.506,0.147c-1.255,0.365-2.166,1.777-1.746,3.075
						C264.684,346.791,266.003,347.655,267.348,347.263L267.348,347.263z"/>
				</g>
			</g>
			<g style="clip-path:url(#XMLID_00000084529173581776243000000012896767739434415804_);">
				<g>
					<path style="fill:#D86C4E;" d="M275.977,350.572c0.225,2.505-0.724,3.578-2.848,3.218c-0.681-0.104-1.362-0.208-2.043-0.312
						c-1.117-0.186-2.209-0.428-3.339-0.53c-3.184-0.287-6.366,0.087-9.527,0.452c-0.474,0.055-0.479,0.805,0,0.75
						c3.882-0.448,7.718-0.819,11.602-0.174c2,0.332,3.888,0.922,5.883,0.172c2.521-0.948,2.771-2.638,0.649-4.223
						C275.968,349.635,275.594,350.286,275.977,350.572L275.977,350.572z"/>
				</g>
			</g>
		</g>
		<path style="fill:#FFFFFF;" d="M171.831,334.464c-1.963-1.317,2.005-32.328,10.832-56.741c3.966-0.15,13.03,1.271,15.991-1.032
			c18.57-14.443,0-70.669-28.773-61.953c-28.773,8.716-33.642,41.835-33.642,41.835s0.044,0.035,0.129,0.1
			c-1.639,6.585-18.917,77.663-6.138,97.224c13.404,20.518,116.912,13.063,116.912,13.063v-17.538
			C247.142,349.423,174.67,336.368,171.831,334.464z"/>
		<g>
			<path style="fill:#E9F3FF;" d="M430.782,226.774l-0.227-23.333l1.871-0.026c1.315-0.018,2.367-1.099,2.349-2.414
				c-0.018-1.315-1.099-2.367-2.414-2.349l-15.991,0.219c-1.315,0.018-2.367,1.099-2.349,2.414s1.099,2.367,2.414,2.349l1.871-0.026
				l0.226,23.333c-9.197,2.783-15.838,11.38-15.7,21.469c0.168,12.214,10.205,21.98,22.419,21.812
				c12.214-0.168,21.979-10.205,21.812-22.419C446.926,237.716,440.052,229.304,430.782,226.774z"/>
			<g>
				<path style="fill:#F0F8FF;" d="M424.94,270.37c-5.83,0-11.329-2.232-15.517-6.306c-4.262-4.147-6.654-9.705-6.736-15.651
					c-0.068-4.927,1.446-9.617,4.378-13.562c2.815-3.789,6.832-6.632,11.321-8.015l-0.223-23.078l-1.726,0.024
					c-0.012,0-0.023,0-0.035,0c-1.378,0-2.508-1.111-2.527-2.493c-0.019-1.393,1.099-2.543,2.492-2.562l15.991-0.219
					c1.392-0.022,2.543,1.099,2.562,2.492c0.009,0.675-0.245,1.313-0.716,1.797c-0.471,0.484-1.102,0.755-1.777,0.765l-1.726,0.024
					l0.223,23.078c4.525,1.26,8.618,3.992,11.536,7.702c3.039,3.863,4.68,8.51,4.748,13.437
					c0.168,12.275-9.681,22.398-21.956,22.566C425.149,270.369,425.045,270.37,424.94,270.37z M418.45,203.461l0.23,23.588
					l-0.105,0.032c-4.471,1.353-8.476,4.174-11.276,7.943c-2.893,3.893-4.387,8.522-4.32,13.385
					c0.08,5.868,2.441,11.354,6.648,15.447c4.207,4.093,9.761,6.299,15.623,6.222c12.114-0.166,21.835-10.157,21.668-22.271
					c-0.067-4.863-1.687-9.449-4.686-13.261c-2.903-3.69-6.983-6.4-11.49-7.63l-0.105-0.029l-0.002-0.109l-0.228-23.478l2.017-0.028
					c0.597-0.008,1.156-0.249,1.572-0.677c0.417-0.428,0.642-0.993,0.633-1.59c-0.017-1.223-1.017-2.206-2.236-2.206
					c-0.01,0-0.021,0-0.031,0l-15.991,0.219c-1.233,0.017-2.223,1.034-2.206,2.267c0.008,0.597,0.249,1.156,0.677,1.572
					c0.428,0.417,0.997,0.642,1.59,0.633L418.45,203.461z"/>
			</g>
			<g>
				<defs>
					<path id="XMLID_14_" d="M418.313,248.573c-5.604-1.986-10.125-1.807-13.078-1.232c-0.053,0.638-0.077,1.285-0.068,1.938
						c0.15,10.925,9.128,19.66,20.053,19.51c10.925-0.15,19.66-9.128,19.51-20.053c-0.001-0.093-0.004-0.185-0.007-0.277
						C437.807,251.844,426.039,251.311,418.313,248.573z"/>
				</defs>
				<use xlink:href="#XMLID_14_"  style="overflow:visible;fill:#BEB9EF;"/>
				<clipPath id="XMLID_00000139276751036058874720000015383010177571197068_">
					<use xlink:href="#XMLID_14_"  style="overflow:visible;"/>
				</clipPath>
				
					<circle style="clip-path:url(#XMLID_00000139276751036058874720000015383010177571197068_);fill:#9D9BDD;" cx="413.457" cy="254.167" r="0.873"/>
				<path style="clip-path:url(#XMLID_00000139276751036058874720000015383010177571197068_);fill:#9D9BDD;" d="M428.44,262.749
					c0,0.964-0.781,1.746-1.746,1.746c-0.964,0-1.745-0.782-1.745-1.746c0-0.964,0.781-1.746,1.745-1.746
					C427.659,261.004,428.44,261.785,428.44,262.749z"/>
				<path style="clip-path:url(#XMLID_00000139276751036058874720000015383010177571197068_);fill:#9D9BDD;" d="M416.803,257.876
					c0,0.442-0.358,0.8-0.8,0.8c-0.442,0-0.8-0.358-0.8-0.8c0-0.442,0.358-0.8,0.8-0.8
					C416.445,257.076,416.803,257.434,416.803,257.876z"/>
				<path style="clip-path:url(#XMLID_00000139276751036058874720000015383010177571197068_);fill:#9D9BDD;" d="M437.168,253.585
					c0,1.044-0.847,1.891-1.891,1.891c-1.044,0-1.891-0.847-1.891-1.891s0.847-1.891,1.891-1.891
					C436.321,251.694,437.168,252.54,437.168,253.585z"/>
				<path style="clip-path:url(#XMLID_00000139276751036058874720000015383010177571197068_);fill:#9D9BDD;" d="M425.385,254.749
					c0,0.482-0.391,0.873-0.873,0.873s-0.873-0.391-0.873-0.873c0-0.482,0.391-0.873,0.873-0.873S425.385,254.267,425.385,254.749z"
					/>
				<path style="clip-path:url(#XMLID_00000139276751036058874720000015383010177571197068_);fill:#9D9BDD;" d="M414.33,249.221
					c0,0.241-0.195,0.436-0.436,0.436s-0.436-0.195-0.436-0.436c0-0.241,0.195-0.436,0.436-0.436S414.33,248.98,414.33,249.221z"/>
				
					<circle style="clip-path:url(#XMLID_00000139276751036058874720000015383010177571197068_);fill:#9D9BDD;" cx="416.367" cy="264.786" r="1.164"/>
				<path style="clip-path:url(#XMLID_00000139276751036058874720000015383010177571197068_);fill:#9D9BDD;" d="M434.695,260.422
					c0,0.723-0.586,1.309-1.309,1.309c-0.723,0-1.309-0.586-1.309-1.309c0-0.723,0.586-1.309,1.309-1.309
					C434.109,259.112,434.695,259.699,434.695,260.422z"/>
				
					<circle style="clip-path:url(#XMLID_00000139276751036058874720000015383010177571197068_);fill:#9D9BDD;" cx="418.549" cy="253.003" r="1.309"/>
				<path style="clip-path:url(#XMLID_00000139276751036058874720000015383010177571197068_);fill:#9D9BDD;" d="M443.714,252.785
					c0,0.603-0.488,1.091-1.091,1.091c-0.603,0-1.091-0.488-1.091-1.091c0-0.603,0.488-1.091,1.091-1.091
					C443.225,251.694,443.714,252.182,443.714,252.785z"/>
				<path style="clip-path:url(#XMLID_00000139276751036058874720000015383010177571197068_);fill:#9D9BDD;" d="M408.366,251.621
					c0,0.683-0.554,1.236-1.236,1.236c-0.683,0-1.236-0.554-1.236-1.236c0-0.683,0.554-1.236,1.236-1.236
					C407.813,250.385,408.366,250.938,408.366,251.621z"/>
			</g>
			<path style="fill:#BEB9EF;" d="M421.749,246.53c0,0.763-0.619,1.382-1.382,1.382c-0.763,0-1.382-0.619-1.382-1.382
				s0.619-1.382,1.382-1.382C421.13,245.148,421.749,245.767,421.749,246.53z"/>
			<path style="fill:#BEB9EF;" d="M433.531,249.076c0,1.446-1.172,2.618-2.618,2.618c-1.446,0-2.618-1.172-2.618-2.618
				c0-1.446,1.172-2.618,2.618-2.618C432.359,246.457,433.531,247.63,433.531,249.076z"/>
			<path style="fill:#BEB9EF;" d="M435.132,239.039c0,0.643-0.521,1.164-1.164,1.164s-1.164-0.521-1.164-1.164
				c0-0.643,0.521-1.164,1.164-1.164S435.132,238.396,435.132,239.039z"/>
			<path style="fill:#BEB9EF;" d="M423.203,236.202c0,0.603-0.488,1.091-1.091,1.091c-0.603,0-1.091-0.488-1.091-1.091
				c0-0.603,0.488-1.091,1.091-1.091C422.715,235.111,423.203,235.6,423.203,236.202z"/>
			<path style="fill:#BEB9EF;" d="M416.803,246.966c0,2.049-1.661,3.709-3.709,3.709c-2.049,0-3.709-1.661-3.709-3.709
				s1.661-3.709,3.709-3.709C415.142,243.257,416.803,244.918,416.803,246.966z"/>
			<path style="fill:#BEB9EF;" d="M435.568,245.294c0-0.482,0.391-0.873,0.873-0.873c0.482,0,0.873,0.391,0.873,0.873
				c0,0.482-0.391,0.873-0.873,0.873C435.959,246.166,435.568,245.776,435.568,245.294z"/>
			<path style="fill:#BEB9EF;" d="M429.458,231.111c0,1.004-0.814,1.818-1.818,1.818c-1.004,0-1.818-0.814-1.818-1.818
				s0.814-1.818,1.818-1.818C428.644,229.293,429.458,230.107,429.458,231.111z"/>
			<path style="fill:#BEB9EF;" d="M427.713,241.584c0,0.763-0.619,1.382-1.382,1.382c-0.763,0-1.382-0.619-1.382-1.382
				c0-0.763,0.619-1.382,1.382-1.382C427.094,240.202,427.713,240.821,427.713,241.584z"/>
			<path style="fill:#BEB9EF;" d="M416.076,235.62c0,0.281-0.228,0.509-0.509,0.509c-0.281,0-0.509-0.228-0.509-0.509
				c0-0.281,0.228-0.509,0.509-0.509C415.848,235.111,416.076,235.339,416.076,235.62z"/>
			<g>
				<g style="opacity:0.31;">
					<path style="fill:#F0F8FF;" d="M422.51,228.012c-7.084,2.18-12.788,7.574-15.355,14.527c-0.734,1.989-1.15,4.068-1.336,6.177
						c-0.069,0.784,0.718,1.455,1.455,1.455c0.844,0,1.385-0.669,1.455-1.455c0.732-8.296,6.619-15.456,14.556-17.899
						C425.068,230.268,424.307,227.459,422.51,228.012L422.51,228.012z"/>
				</g>
				<g style="opacity:0.31;">
					<path style="fill:#F0F8FF;" d="M430.64,266.284c4.683-1.441,8.453-5.007,10.151-9.603c0.486-1.315,0.76-2.689,0.884-4.084
						c0.046-0.518-0.475-0.962-0.962-0.962c-0.558,0-0.916,0.442-0.962,0.962c-0.484,5.484-4.375,10.217-9.622,11.832
						C428.95,264.793,429.453,266.65,430.64,266.284L430.64,266.284z"/>
				</g>
			</g>
		</g>
		<path style="fill:#FF9776;" d="M413.812,221.717c0,0-1.67-8.35,1.67-10.02c3.34-1.67-1.67-15.03-1.67-16.7
			c0-1.67,5.854-1.041,7.937,3.654c2.083,4.696-2.764,16.942-2.764,16.942s1.507,14.473-0.163,12.803
			c-1.67-1.67-5.01-3.897-5.01-3.897S413.812,226.727,413.812,221.717z"/>
		<path style="fill:#FF9776;" d="M435.567,227.94c0,0-8.396,5.467-10.066,0.457c-1.67-5.01-5.01-25.05,0-23.38
			c5.01,1.67,8.35,6.68,10.02,8.35C437.192,215.037,435.567,227.94,435.567,227.94z"/>
		<g>
			<path style="fill:#04386F;" d="M213.826,148.936c0,0-13.55-11.941-7.434-27.509c5.674-14.443,16.313,1.049,28.886-17.538
				c11.864-17.538,37.14-20.633,45.438-10.064c0,0,19.835,30.413-13.223,33.058C267.493,126.882,217.018,147.188,213.826,148.936z"
				/>
			<g>
				<defs>
					<path id="XMLID_13_" d="M270.137,117.626c0,0,11.901,68.76-17.19,63.471c0,0,0,15.868,2.645,18.512
						c2.645,2.645,6.612,3.967,6.612,3.967l0,0c-13.006,16.429-37.784,16.874-51.372,0.923l-4.165-4.89
						c0,0,19.835-9.256,14.546-47.603c0,0-11.901-1.322-9.256-10.578c2.645-9.256,13.223-1.322,13.223-1.322
						s10.578,3.967,9.256-22.479C234.435,117.626,254.27,122.915,270.137,117.626z"/>
				</defs>
				<use xlink:href="#XMLID_13_"  style="overflow:visible;fill:#FF9776;"/>
				<clipPath id="XMLID_00000119104977066633478370000000968837964610184096_">
					<use xlink:href="#XMLID_13_"  style="overflow:visible;"/>
				</clipPath>
				<path style="opacity:0.34;clip-path:url(#XMLID_00000119104977066633478370000000968837964610184096_);fill:#FF9776;" d="
					M267.775,184.357c0,0-8.306-2.002-9.285-2.063c-8.253-0.516-19.057-6.66-23.212-13.411c0,0,10.491,24.683,21.301,17.25
					C267.39,178.701,267.775,184.357,267.775,184.357z"/>
			</g>
			<g>
				<path style="fill:#A84129;" d="M259.008,167.326c-5.691,0-9.544-1.69-11.143-4.887l0.461-0.231
					c3.658,7.319,18.535,3.698,18.685,3.661l0.125,0.5C267.098,166.378,263.26,167.326,259.008,167.326z"/>
			</g>
			<g>
				<path style="fill:#FFFFFF;" d="M253.332,138.449c0,1.424-2.771,2.579-6.19,2.579c-3.419,0-6.19-1.155-6.19-2.579
					c0-1.424,2.771-2.579,6.19-2.579C250.561,135.87,253.332,137.024,253.332,138.449z"/>
				<path style="fill:#04386F;" d="M247.142,138.449c0,1.424-0.577,2.579-1.29,2.579c-0.712,0-1.289-1.155-1.289-2.579
					c0-1.424,0.577-2.579,1.289-2.579C246.565,135.87,247.142,137.024,247.142,138.449z"/>
			</g>
			<g>
				<path style="fill:#FFFFFF;" d="M271.386,137.976c0,1.401-2.725,2.536-6.087,2.536c-3.362,0-6.087-1.135-6.087-2.536
					s2.725-2.536,6.087-2.536C268.661,135.44,271.386,136.575,271.386,137.976z"/>
				<path style="fill:#04386F;" d="M265.789,137.976c0,1.401-0.568,2.536-1.268,2.536c-0.7,0-1.268-1.135-1.268-2.536
					s0.568-2.536,1.268-2.536C265.222,135.44,265.789,136.575,265.789,137.976z"/>
			</g>
			<g>
				<path style="fill:#A84129;" d="M259.783,158.809l-0.204-0.404l6.488-3.288c0.19-0.096,0.33-0.26,0.393-0.459
					c0.062-0.196,0.042-0.404-0.056-0.587c-2.09-3.909-8.032-17.442-8.092-17.578l0.415-0.182c0.06,0.136,5.995,13.653,8.076,17.546
					c0.156,0.291,0.187,0.624,0.088,0.937c-0.1,0.317-0.32,0.575-0.62,0.727L259.783,158.809z"/>
			</g>
			<path style="fill:#04386F;" d="M237.857,132.259c0,0,6.19-5.674,13.927-2.579c0,0,1.548,1.032,1.548-1.032
				C253.332,126.585,241.468,123.49,237.857,132.259z"/>
			<path style="fill:#04386F;" d="M275.513,132.259c0,0-6.19-5.674-13.927-2.579c0,0-1.548,1.032-1.548-1.032
				C260.038,126.585,271.902,123.49,275.513,132.259z"/>
			<g>
				<path style="fill:#C95232;" d="M219.356,147.407c-0.476,0-0.932-0.1-1.215-0.177c-0.734-0.201-1.677-0.506-2.455-1.083
					c-0.817-0.607-1.336-1.446-1.424-2.303c-0.104-1.012,0.42-2.07,1.303-2.633c0.845-0.538,2-0.608,2.942-0.179
					c0.78,0.356,1.58,1.21,1.492,2.244c-0.044,0.519-0.392,1.03-0.886,1.302c-0.426,0.235-0.892,0.256-1.276,0.056l0.178-0.343
					c0.267,0.139,0.6,0.12,0.911-0.052c0.384-0.211,0.653-0.602,0.687-0.996c0.072-0.848-0.606-1.558-1.267-1.859
					c-0.826-0.377-1.836-0.317-2.573,0.153c-0.763,0.486-1.216,1.397-1.126,2.268c0.077,0.749,0.54,1.49,1.27,2.032
					c0.726,0.539,1.625,0.828,2.326,1.02c0.441,0.121,1.92,0.447,2.404-0.432l0.339,0.187
					C220.643,147.234,219.983,147.407,219.356,147.407z"/>
			</g>
		</g>
	</g>
	<rect x="18.746" y="420.134" style="fill:#4856D8;" width="458.085" height="74.651"/>
	<g>
		<path style="fill:#E9F3FF;" d="M387.23,418.816l9.77-16.841l5.706-9.835c1.101-1.898,1.683-4.052,1.688-6.246l0.023-11.15
			l-1.3-0.003c-1.059-0.002-1.98-0.82-2.009-1.878c-0.031-1.095,0.849-1.991,1.936-1.989l12.898,0.027
			c1.059,0.002,1.98,0.82,2.009,1.878c0.031,1.095-0.849,1.991-1.936,1.988l-1.657-0.003l-0.023,11.15
			c-0.005,2.194,0.568,4.35,1.661,6.253l5.665,9.859l9.699,16.882c1.15,2-0.298,4.495-2.605,4.49l-19.47-0.041l-19.47-0.041
			C387.509,423.313,386.072,420.812,387.23,418.816z"/>
		<g>
			<path style="fill:#F0F8FF;" d="M428.762,423.526c-0.002,0-0.005,0-0.007,0l-38.939-0.082c-1.13-0.002-2.14-0.588-2.703-1.568
				c-0.563-0.979-0.56-2.147,0.007-3.124l0.11,0.064l-0.11-0.064l15.476-26.676c1.088-1.876,1.666-4.013,1.67-6.182l0.023-11.023
				l-1.173-0.003c-1.147-0.002-2.105-0.9-2.136-2.001c-0.016-0.563,0.192-1.094,0.584-1.497c0.391-0.402,0.915-0.622,1.475-0.622
				c0.001,0,0.003,0,0.004,0l12.898,0.027c1.147,0.002,2.105,0.9,2.136,2.001c0.016,0.563-0.191,1.094-0.584,1.497
				c-0.391,0.401-0.915,0.622-1.475,0.622c-0.001,0-0.003,0-0.004,0l-1.53-0.003l-0.023,11.023
				c-0.005,2.169,0.564,4.309,1.645,6.189l15.364,26.741c0.563,0.979,0.56,2.147-0.007,3.124
				C430.899,422.945,429.889,423.526,428.762,423.526z M403.04,371.003c-0.491,0-0.95,0.194-1.293,0.546
				c-0.344,0.353-0.526,0.819-0.512,1.312c0.027,0.965,0.872,1.752,1.883,1.754l1.427,0.003l-0.024,11.277
				c-0.005,2.213-0.594,4.395-1.705,6.309L387.34,418.88c-0.521,0.897-0.523,1.97-0.006,2.87c0.517,0.9,1.445,1.438,2.483,1.44
				l38.939,0.082c0.002,0,0.004,0,0.006,0c1.035,0,1.963-0.534,2.482-1.43c0.521-0.897,0.523-1.97,0.006-2.87l-15.364-26.741
				c-1.103-1.919-1.683-4.103-1.678-6.316l0.024-11.277l1.784,0.004c0.001,0,0.003,0,0.004,0c0.491,0,0.95-0.194,1.293-0.546
				c0.344-0.353,0.525-0.819,0.512-1.312c-0.027-0.965-0.871-1.752-1.883-1.754l-12.898-0.027
				C403.042,371.003,403.041,371.003,403.04,371.003z"/>
		</g>
		<g>
			<defs>
				<path id="XMLID_9_" d="M410.874,407.758c-6.293,1.334-11.829,0.94-15.886,0.169l-6.393,10.612
					c-1.083,1.797,0.261,4.05,2.419,4.054l18.208,0.037l18.208,0.037c2.158,0.004,3.511-2.242,2.436-4.044l-6.843-11.47
					C419.786,406.744,415.702,406.734,410.874,407.758z"/>
			</defs>
			<use xlink:href="#XMLID_9_"  style="overflow:visible;fill:#FF8C91;"/>
			<clipPath id="XMLID_00000028299402600377439980000010802925176261331845_">
				<use xlink:href="#XMLID_9_"  style="overflow:visible;"/>
			</clipPath>
			
				<circle style="clip-path:url(#XMLID_00000028299402600377439980000010802925176261331845_);fill:#E26F7A;" cx="395.29" cy="411.295" r="0.508"/>
			
				<circle style="clip-path:url(#XMLID_00000028299402600377439980000010802925176261331845_);fill:#E26F7A;" cx="410.098" cy="412.121" r="0.826"/>
			
				<circle style="clip-path:url(#XMLID_00000028299402600377439980000010802925176261331845_);fill:#E26F7A;" cx="399.993" cy="418.667" r="1.017"/>
			<path style="clip-path:url(#XMLID_00000028299402600377439980000010802925176261331845_);fill:#E26F7A;" d="M403.552,410.723
				c0,0.386-0.313,0.699-0.699,0.699c-0.386,0-0.699-0.313-0.699-0.699c0-0.386,0.313-0.699,0.699-0.699
				C403.239,410.024,403.552,410.337,403.552,410.723z"/>
			
				<circle style="clip-path:url(#XMLID_00000028299402600377439980000010802925176261331845_);fill:#E26F7A;" cx="420.839" cy="415.998" r="1.271"/>
			<path style="clip-path:url(#XMLID_00000028299402600377439980000010802925176261331845_);fill:#E26F7A;" d="M409.272,419.429
				c0,0.562-0.455,1.017-1.017,1.017c-0.562,0-1.017-0.455-1.017-1.017c0-0.562,0.455-1.017,1.017-1.017
				C408.817,418.413,409.272,418.868,409.272,419.429z"/>
			<path style="clip-path:url(#XMLID_00000028299402600377439980000010802925176261331845_);fill:#E26F7A;" d="M418.042,409.388
				c0,0.491-0.398,0.89-0.89,0.89s-0.89-0.398-0.89-0.89c0-0.491,0.398-0.89,0.89-0.89S418.042,408.897,418.042,409.388z"/>
			
				<circle style="clip-path:url(#XMLID_00000028299402600377439980000010802925176261331845_);fill:#E26F7A;" cx="417.152" cy="421.59" r="1.017"/>
			<path style="clip-path:url(#XMLID_00000028299402600377439980000010802925176261331845_);fill:#E26F7A;" d="M415.119,414.472
				c0,0.421-0.341,0.763-0.763,0.763c-0.421,0-0.763-0.341-0.763-0.763s0.341-0.763,0.763-0.763
				C414.777,413.71,415.119,414.051,415.119,414.472z"/>
			
				<circle style="clip-path:url(#XMLID_00000028299402600377439980000010802925176261331845_);fill:#E26F7A;" cx="393.193" cy="420.637" r="0.826"/>
			
				<circle style="clip-path:url(#XMLID_00000028299402600377439980000010802925176261331845_);fill:#E26F7A;" cx="403.489" cy="414.536" r="1.08"/>
			<path style="clip-path:url(#XMLID_00000028299402600377439980000010802925176261331845_);fill:#E26F7A;" d="M424.143,418.921
				c0-0.351,0.284-0.635,0.635-0.635s0.636,0.285,0.636,0.635c0,0.351-0.285,0.635-0.636,0.635S424.143,419.272,424.143,418.921z"/>
		</g>
		<g style="opacity:0.33;">
			<path style="fill:#F0F8FF;" d="M395.14,415.81c2.439-4.904,4.878-9.807,7.317-14.711c0.966-1.942,1.937-3.882,2.898-5.827
				c1.178-2.383,1.805-4.972,1.82-7.632c0.005-0.908,0-1.815,0-2.723c0-3.113,0-6.226,0-9.339c0-0.818-1.271-0.819-1.271,0
				c0,2.654,0,5.308,0,7.961c0,1.287,0.001,2.573,0,3.86c-0.002,2.495-0.514,4.925-1.617,7.172
				c-2.379,4.846-4.809,9.668-7.213,14.502c-1.01,2.032-2.021,4.063-3.031,6.095C393.679,415.899,394.775,416.543,395.14,415.81
				L395.14,415.81z"/>
		</g>
	</g>
	<g>
		<g>
			<g>
				<defs>
					
						<rect id="XMLID_6_" x="88.205" y="343.743" transform="matrix(0.8812 -0.4727 0.4727 0.8812 -156.8611 86.4852)" width="10.935" height="23.297"/>
				</defs>
				<use xlink:href="#XMLID_6_"  style="overflow:visible;fill:#E9F3FF;"/>
				<clipPath id="XMLID_00000044889046002085629210000005015448485660323972_">
					<use xlink:href="#XMLID_6_"  style="overflow:visible;"/>
				</clipPath>
				<path style="clip-path:url(#XMLID_00000044889046002085629210000005015448485660323972_);fill:#E9F3FF;" d="M86.935,345.788
					c-0.222,0.793,5.453,10.963,5.453,10.963l-1.243,0.287l-5.76-10.003L86.935,345.788"/>
				<path style="clip-path:url(#XMLID_00000044889046002085629210000005015448485660323972_);fill:#E9F3FF;" d="M83.399,350.562
					l12.099-7.293l-9.009-1.038C86.489,342.231,82.5,345.927,83.399,350.562z"/>
			</g>
			<g>
				<defs>
					
						<rect id="XMLID_5_" x="101.562" y="367.751" transform="matrix(0.8812 -0.4727 0.4727 0.8812 -166.6225 95.6498)" width="10.935" height="23.297"/>
				</defs>
				<use xlink:href="#XMLID_5_"  style="overflow:visible;fill:#E9F3FF;"/>
				<clipPath id="XMLID_00000114048821961334030270000014416239801658444976_">
					<use xlink:href="#XMLID_5_"  style="overflow:visible;"/>
				</clipPath>
				<polyline style="clip-path:url(#XMLID_00000114048821961334030270000014416239801658444976_);fill:#E9F3FF;" points="
					105.15,391.154 119.235,383.81 110.998,381.273 105.15,391.154 				"/>
			</g>
			<g>
				<defs>
					
						<rect id="XMLID_4_" x="94.646" y="353.004" transform="matrix(0.8812 -0.4727 0.4727 0.8812 -163.1677 92.742)" width="16.65" height="36.134"/>
				</defs>
				<use xlink:href="#XMLID_4_"  style="overflow:visible;fill:#E9F3FF;"/>
				<clipPath id="XMLID_00000023252364044379913310000003058550957320717758_">
					<use xlink:href="#XMLID_4_"  style="overflow:visible;"/>
				</clipPath>
				<path style="clip-path:url(#XMLID_00000023252364044379913310000003058550957320717758_);fill:#E9F3FF;" d="M92.387,356.751
					c-0.11,1.481,15.929,31.954,15.929,31.954l-0.979,0.525l-16.41-31.567L92.387,356.751"/>
				<path style="clip-path:url(#XMLID_00000023252364044379913310000003058550957320717758_);fill:#E9F3FF;" d="M103.279,375.401
					c-0.692,4.46-4.869,7.515-9.329,6.823c-4.46-0.692-7.515-4.869-6.823-9.329c0.692-4.46,4.869-7.515,9.329-6.823
					C100.916,366.764,103.971,370.941,103.279,375.401z"/>
			</g>
			<path style="fill:#453E6B;" d="M102.374,352.829l-14.522,7.789c-0.673,0.361-1.512,0.108-1.873-0.565l0,0
				c-0.361-0.673-0.108-1.512,0.565-1.873l14.522-7.79c0.673-0.361,1.512-0.108,1.873,0.565l0,0
				C103.301,351.63,103.048,352.468,102.374,352.829z"/>
			<path style="fill:#453E6B;" d="M94.151,343.415l-10.748,5.765c-0.498,0.267-1.119,0.08-1.386-0.418l0,0
				c-0.267-0.498-0.08-1.119,0.418-1.386l10.748-5.765c0.498-0.267,1.119-0.08,1.386,0.418l0,0
				C94.837,342.527,94.649,343.148,94.151,343.415z"/>
		</g>
		<rect x="105.495" y="401.32" style="fill:#E9F3FF;" width="10.127" height="4.62"/>
		<g>
			<path style="fill:#453E6B;" d="M104.107,412.747c-11.819,0-21.434-9.615-21.434-21.434c0-5.437,2.039-10.622,5.74-14.6
				l2.211,2.058c-3.18,3.417-4.931,7.871-4.931,12.542c0,10.153,8.26,18.414,18.414,18.414V412.747z"/>
		</g>
		<rect x="102.475" y="405.939" style="fill:#E9F3FF;" width="15.813" height="14.786"/>
		<g>
			<path style="fill:#453E6B;" d="M124.207,402.483H96.7c-0.852,0-1.542-0.691-1.542-1.542l0,0c0-0.852,0.691-1.543,1.542-1.543
				h27.507c0.852,0,1.542,0.691,1.542,1.543l0,0C125.75,401.793,125.059,402.483,124.207,402.483z"/>
		</g>
		<g>
			<path style="fill:#453E6B;" d="M119.943,422.205h-18.978c-0.852,0-1.543-0.691-1.543-1.542l0,0c0-0.852,0.691-1.542,1.543-1.542
				h18.978c0.852,0,1.542,0.691,1.542,1.542l0,0C121.485,421.514,120.795,422.205,119.943,422.205z"/>
		</g>
		
			<ellipse transform="matrix(0.9247 -0.3807 0.3807 0.9247 -134.961 63.8752)" style="fill:#453E6B;" cx="93.976" cy="373.077" rx="8.442" ry="8.442"/>
		<path style="fill:#E9F3FF;" d="M98.704,373.077c0,2.611-2.117,4.728-4.728,4.728c-2.611,0-4.728-2.117-4.728-4.728
			c0-2.611,2.117-4.728,4.728-4.728C96.587,368.349,98.704,370.466,98.704,373.077z"/>
	</g>
	<path style="fill:#04386F;" d="M455.127,428.305H47.6c-2.115,0-3.83-1.715-3.83-3.83l0,0c0-2.115,1.715-3.83,3.83-3.83h407.528
		c2.115,0,3.83,1.715,3.83,3.83l0,0C458.957,426.59,457.242,428.305,455.127,428.305z"/>
	<g>
		<path style="fill:#D6E7FF;" d="M318.756,367.534h-8.4c-0.691,0-1.251,0.56-1.251,1.251c0,0.691,0.56,1.251,1.251,1.251h0.894
			v32.528c0,1.777,1.44,3.217,3.217,3.217s3.217-1.44,3.217-3.217v-32.528h1.072c0.691,0,1.251-0.56,1.251-1.251
			C320.007,368.094,319.447,367.534,318.756,367.534z"/>
		<path style="fill:#D6E7FF;" d="M338.008,367.534h-8.4c-0.691,0-1.251,0.56-1.251,1.251c0,0.691,0.56,1.251,1.251,1.251h0.894
			v32.528c0,1.777,1.44,3.217,3.217,3.217c1.777,0,3.217-1.44,3.217-3.217v-32.528h1.072c0.691,0,1.251-0.56,1.251-1.251
			C339.259,368.094,338.699,367.534,338.008,367.534z"/>
		<path style="fill:#D6E7FF;" d="M357.26,367.534h-8.4c-0.691,0-1.251,0.56-1.251,1.251c0,0.691,0.56,1.251,1.251,1.251h0.894
			v32.528c0,1.777,1.44,3.217,3.217,3.217c1.777,0,3.217-1.44,3.217-3.217v-32.528h1.072c0.691,0,1.251-0.56,1.251-1.251
			C358.511,368.094,357.951,367.534,357.26,367.534z"/>
		<path style="fill:#453E6B;" d="M368.886,420.157h-69.779c-1.391,0-2.518-1.127-2.518-2.518l0,0c0-1.391,1.127-2.518,2.518-2.518
			h69.779c1.391,0,2.518,1.127,2.518,2.518l0,0C371.404,419.03,370.277,420.157,368.886,420.157z"/>
		<path style="fill:#453E6B;" d="M366.968,376.515h-66.662c-0.728,0-1.319-0.59-1.319-1.319l0,0c0-0.728,0.59-1.319,1.319-1.319
			h66.662c0.728,0,1.319,0.59,1.319,1.319l0,0C368.286,375.925,367.696,376.515,366.968,376.515z"/>
		<rect x="302.625" y="375.316" style="fill:#453E6B;" width="1.918" height="40.765"/>
		<rect x="363.563" y="375.316" style="fill:#453E6B;" width="1.918" height="40.765"/>
		<path style="fill:#EA645E;" d="M350.558,386.788v15.384c0,1.332,1.08,2.413,2.413,2.413s2.413-1.08,2.413-2.413v-15.384H350.558z"
			/>
		<path style="fill:#CCE561;" d="M331.439,390.901v11.27c0,1.332,1.08,2.413,2.413,2.413s2.413-1.08,2.413-2.413v-11.27H331.439z"/>
		<path style="fill:#CD73B9;" d="M311.966,388.423v13.749c0,1.332,1.08,2.413,2.413,2.413c1.332,0,2.413-1.08,2.413-2.413v-13.749
			H311.966z"/>
	</g>
	<g>
		<g>
			<path style="fill:#D6E7FF;" d="M145.218,400.257l-5.753,0.02l-2.496,1.805c-0.663,0.48-1.055,1.25-1.052,2.069l0.049,13.871
				c0.005,1.404,1.147,2.538,2.551,2.533l7.61-0.027c1.404-0.005,2.538-1.147,2.533-2.551l-0.049-13.911
				c-0.003-0.796-0.379-1.545-1.015-2.023L145.218,400.257z"/>
			<path style="fill:#FF9D37;" d="M147.503,400.796l-10.502,0.037l-0.005-1.34c-0.003-0.975,0.784-1.768,1.759-1.771l6.972-0.024
				c0.975-0.003,1.768,0.784,1.771,1.759L147.503,400.796z"/>
			
				<rect x="135.843" y="406.012" transform="matrix(1 -0.0035 0.0035 1 -1.4413 0.4941)" style="fill:#FF9D37;" width="8.493" height="10"/>
		</g>
		<g>
			<path style="fill:#D6E7FF;" d="M159.953,400.257l-5.753,0.02l-2.496,1.805c-0.663,0.48-1.055,1.25-1.052,2.069l0.049,13.871
				c0.005,1.404,1.147,2.538,2.551,2.533l7.61-0.027c1.404-0.005,2.538-1.147,2.533-2.551l-0.049-13.911
				c-0.003-0.796-0.378-1.545-1.015-2.023L159.953,400.257z"/>
			<path style="fill:#95BD27;" d="M162.238,400.796l-10.502,0.037l-0.005-1.34c-0.003-0.975,0.784-1.768,1.759-1.771l6.972-0.024
				c0.975-0.003,1.768,0.784,1.771,1.759L162.238,400.796z"/>
			
				<rect x="150.579" y="406.012" transform="matrix(1 -0.0035 0.0035 1 -1.4412 0.5458)" style="fill:#95BD27;" width="8.493" height="10"/>
		</g>
	</g>
	<g>
		<g>
			<path style="fill:#01284C;" d="M254.994,191.692c5.78,3.919,8.333,10.729,10.16,17.184c2.074,7.332,3.145,14.92,3.444,22.527
				c0.598,15.188-1.75,30.309-5.049,45.091c-0.195,0.873,1.148,1.246,1.343,0.37c3.508-15.717,5.977-31.875,4.969-48.02
				c-0.482-7.721-1.765-15.42-4.1-22.803c-1.901-6.011-4.699-11.915-10.063-15.551C254.953,189.985,254.255,191.191,254.994,191.692
				L254.994,191.692z"/>
		</g>
		<g>
			<path style="fill:#01284C;" d="M207.819,267.661c-4.513-12.346-6.504-25.925-6.699-39.043
				c-0.173-11.682,1.661-26.527,10.942-34.788c0.671-0.597-0.317-1.579-0.985-0.985c-9.154,8.148-11.339,22.609-11.36,34.194
				c-0.026,13.711,2.046,28.098,6.759,40.992C206.781,268.866,208.127,268.505,207.819,267.661L207.819,267.661z"/>
		</g>
		<circle style="fill:#D6E7FF;" cx="207.548" cy="268.103" r="5.106"/>
		<circle style="fill:#01284C;" cx="207.548" cy="268.103" r="2.785"/>
		<g>
			<path style="fill:#01284C;" d="M239.591,311.357c-4.42-8.931,3.872-17.993,10.071-23.541c4.548-4.07,9.61-7.754,14.932-10.756
				c-0.341-0.139-0.682-0.277-1.023-0.416c1.643,5.528,2.714,11.331,3.194,17.072c0.605,7.24,0.76,19.033-7.969,21.531
				c-0.86,0.246-0.494,1.59,0.37,1.343c6.497-1.859,8.606-8.539,9.084-14.625c0.546-6.948-0.563-14.062-2.098-20.826
				c-0.37-1.63-0.763-3.261-1.239-4.864c-0.129-0.435-0.626-0.64-1.023-0.416c-4.019,2.267-7.839,4.963-11.454,7.82
				c-5.837,4.612-12.056,10.316-14.591,17.522c-1.275,3.624-1.17,7.403,0.542,10.861
				C238.786,312.863,239.988,312.158,239.591,311.357L239.591,311.357z"/>
		</g>
		<path style="fill:#D6E7FF;" d="M240.972,311.739c0-0.769-0.624-1.393-1.393-1.393c-0.769,0-1.393,0.624-1.393,1.393
			c0,0.769,0.624,1.393,1.393,1.393C240.349,313.132,240.972,312.509,240.972,311.739z"/>
		<path style="fill:#D6E7FF;" d="M260.005,315.917c0-0.769-0.624-1.393-1.393-1.393c-0.769,0-1.393,0.624-1.393,1.393
			s0.624,1.393,1.393,1.393C259.382,317.31,260.005,316.686,260.005,315.917z"/>
	</g>
</g>
</svg>
